<?xml version="1.0" encoding="UTF-8" ?>
<svg version="1.1" width="64" height="64" xmlns="http://www.w3.org/2000/svg" shape-rendering="crispEdges">
<rect x="44" y="0" width="8" height="4" fill="#022C22" />
<rect x="42" y="2" width="2" height="6" fill="#022C22" />
<rect x="52" y="2" width="2" height="12" fill="#022C22" />
<rect x="40" y="4" width="2" height="6" fill="#022C22" />
<rect x="44" y="4" width="2" height="2" fill="#022C22" />
<rect x="46" y="4" width="4" height="8" fill="#047857" />
<rect x="50" y="4" width="2" height="2" fill="#022C22" />
<rect x="54" y="4" width="2" height="8" fill="#022C22" />
<rect x="18" y="6" width="8" height="4" fill="#022C22" />
<rect x="38" y="6" width="2" height="6" fill="#022C22" />
<rect x="44" y="6" width="2" height="10" fill="#047857" />
<rect x="50" y="6" width="2" height="4" fill="#047857" />
<rect x="16" y="8" width="2" height="12" fill="#022C22" />
<rect x="26" y="8" width="2" height="6" fill="#022C22" />
<rect x="36" y="8" width="2" height="6" fill="#022C22" />
<rect x="42" y="8" width="2" height="10" fill="#047857" />
<rect x="14" y="10" width="2" height="8" fill="#022C22" />
<rect x="18" y="10" width="2" height="2" fill="#022C22" />
<rect x="20" y="10" width="4" height="8" fill="#10B981" />
<rect x="24" y="10" width="2" height="2" fill="#022C22" />
<rect x="28" y="10" width="2" height="6" fill="#022C22" />
<rect x="34" y="10" width="2" height="6" fill="#022C22" />
<rect x="40" y="10" width="2" height="10" fill="#047857" />
<rect x="50" y="10" width="2" height="6" fill="#022C22" />
<rect x="8" y="12" width="6" height="4" fill="#4C0519" />
<rect x="18" y="12" width="2" height="4" fill="#10B981" />
<rect x="24" y="12" width="2" height="10" fill="#10B981" />
<rect x="30" y="12" width="4" height="6" fill="#022C22" />
<rect x="38" y="12" width="2" height="10" fill="#047857" />
<rect x="46" y="12" width="2" height="2" fill="#047857" />
<rect x="48" y="12" width="2" height="6" fill="#022C22" />
<rect x="54" y="12" width="2" height="6" fill="#4C0519" />
<rect x="4" y="14" width="4" height="6" fill="#4C0519" />
<rect x="26" y="14" width="2" height="10" fill="#10B981" />
<rect x="36" y="14" width="2" height="10" fill="#047857" />
<rect x="46" y="14" width="2" height="6" fill="#022C22" />
<rect x="52" y="14" width="2" height="4" fill="#4C0519" />
<rect x="56" y="14" width="4" height="6" fill="#4C0519" />
<rect x="2" y="16" width="2" height="44" fill="#4C0519" />
<rect x="8" y="16" width="4" height="2" fill="#4C0519" />
<rect x="12" y="16" width="2" height="28" fill="#F43F5E" />
<rect x="18" y="16" width="2" height="6" fill="#022C22" />
<rect x="28" y="16" width="2" height="10" fill="#10B981" />
<rect x="34" y="16" width="2" height="6" fill="#047857" />
<rect x="44" y="16" width="2" height="6" fill="#022C22" />
<rect x="50" y="16" width="2" height="28" fill="#F43F5E" />
<rect x="60" y="16" width="2" height="44" fill="#4C0519" />
<rect x="8" y="18" width="4" height="24" fill="#F43F5E" />
<rect x="14" y="18" width="2" height="26" fill="#F43F5E" />
<rect x="20" y="18" width="2" height="6" fill="#022C22" />
<rect x="22" y="18" width="2" height="2" fill="#10B981" />
<rect x="30" y="18" width="2" height="10" fill="#10B981" />
<rect x="32" y="18" width="2" height="2" fill="#047857" />
<rect x="42" y="18" width="2" height="6" fill="#022C22" />
<rect x="48" y="18" width="2" height="26" fill="#F43F5E" />
<rect x="52" y="18" width="4" height="24" fill="#F43F5E" />
<rect x="0" y="20" width="2" height="36" fill="#4C0519" />
<rect x="4" y="20" width="2" height="4" fill="#4C0519" />
<rect x="6" y="20" width="2" height="20" fill="#F43F5E" />
<rect x="16" y="20" width="2" height="24" fill="#F43F5E" />
<rect x="22" y="20" width="2" height="6" fill="#022C22" />
<rect x="32" y="20" width="2" height="8" fill="#10B981" />
<rect x="40" y="20" width="2" height="6" fill="#022C22" />
<rect x="46" y="20" width="2" height="24" fill="#F43F5E" />
<rect x="56" y="20" width="2" height="20" fill="#F43F5E" />
<rect x="58" y="20" width="2" height="4" fill="#4C0519" />
<rect x="62" y="20" width="2" height="36" fill="#4C0519" />
<rect x="18" y="22" width="2" height="22" fill="#F43F5E" />
<rect x="24" y="22" width="2" height="6" fill="#022C22" />
<rect x="34" y="22" width="2" height="4" fill="#10B981" />
<rect x="38" y="22" width="2" height="6" fill="#022C22" />
<rect x="44" y="22" width="2" height="22" fill="#F43F5E" />
<rect x="4" y="24" width="2" height="12" fill="#F43F5E" />
<rect x="20" y="24" width="2" height="20" fill="#F43F5E" />
<rect x="26" y="24" width="2" height="6" fill="#022C22" />
<rect x="36" y="24" width="2" height="6" fill="#022C22" />
<rect x="42" y="24" width="2" height="20" fill="#F43F5E" />
<rect x="58" y="24" width="2" height="12" fill="#F43F5E" />
<rect x="22" y="26" width="2" height="18" fill="#F43F5E" />
<rect x="28" y="26" width="2" height="6" fill="#022C22" />
<rect x="34" y="26" width="2" height="6" fill="#022C22" />
<rect x="40" y="26" width="2" height="18" fill="#F43F5E" />
<rect x="24" y="28" width="2" height="16" fill="#F43F5E" />
<rect x="30" y="28" width="4" height="4" fill="#022C22" />
<rect x="38" y="28" width="2" height="16" fill="#F43F5E" />
<rect x="26" y="30" width="2" height="14" fill="#F43F5E" />
<rect x="36" y="30" width="2" height="14" fill="#F43F5E" />
<rect x="28" y="32" width="8" height="12" fill="#F43F5E" />
<rect x="4" y="36" width="2" height="10" fill="#BE123C" />
<rect x="58" y="36" width="2" height="10" fill="#BE123C" />
<rect x="6" y="40" width="2" height="6" fill="#BE123C" />
<rect x="56" y="40" width="2" height="6" fill="#BE123C" />
<rect x="8" y="42" width="4" height="6" fill="#BE123C" />
<rect x="52" y="42" width="4" height="6" fill="#BE123C" />
<rect x="12" y="44" width="40" height="4" fill="#BE123C" />
<rect x="4" y="46" width="4" height="6" fill="#881337" />
<rect x="56" y="46" width="4" height="6" fill="#881337" />
<rect x="8" y="48" width="48" height="10" fill="#881337" />
<rect x="4" y="52" width="2" height="10" fill="#4C0519" />
<rect x="6" y="52" width="2" height="4" fill="#881337" />
<rect x="56" y="52" width="2" height="4" fill="#881337" />
<rect x="58" y="52" width="2" height="10" fill="#4C0519" />
<rect x="6" y="56" width="2" height="6" fill="#4C0519" />
<rect x="56" y="56" width="2" height="6" fill="#4C0519" />
<rect x="8" y="58" width="4" height="6" fill="#4C0519" />
<rect x="12" y="58" width="40" height="2" fill="#881337" />
<rect x="52" y="58" width="4" height="6" fill="#4C0519" />
<rect x="12" y="60" width="40" height="4" fill="#4C0519" />
</svg>