<?xml version="1.0" encoding="UTF-8" ?>
<svg version="1.1" width="864" height="80" xmlns="http://www.w3.org/2000/svg" shape-rendering="crispEdges">
<rect x="8" y="0" width="176" height="4" fill="#0A0A0A" />
<rect x="4" y="2" width="4" height="6" fill="#0A0A0A" />
<rect x="184" y="2" width="4" height="6" fill="#0A0A0A" />
<rect x="2" y="4" width="2" height="72" fill="#0A0A0A" />
<rect x="8" y="4" width="4" height="2" fill="#0A0A0A" />
<rect x="12" y="4" width="168" height="56" fill="#FAFAFA" />
<rect x="180" y="4" width="4" height="2" fill="#0A0A0A" />
<rect x="188" y="4" width="2" height="72" fill="#0A0A0A" />
<rect x="8" y="6" width="4" height="52" fill="#FAFAFA" />
<rect x="180" y="6" width="4" height="52" fill="#FAFAFA" />
<rect x="232" y="6" width="176" height="4" fill="#0A0A0A" />
<rect x="0" y="8" width="2" height="64" fill="#0A0A0A" />
<rect x="4" y="8" width="2" height="4" fill="#0A0A0A" />
<rect x="6" y="8" width="2" height="48" fill="#FAFAFA" />
<rect x="184" y="8" width="2" height="48" fill="#FAFAFA" />
<rect x="186" y="8" width="2" height="4" fill="#0A0A0A" />
<rect x="190" y="8" width="2" height="64" fill="#0A0A0A" />
<rect x="228" y="8" width="4" height="6" fill="#0A0A0A" />
<rect x="408" y="8" width="4" height="6" fill="#0A0A0A" />
<rect x="226" y="10" width="2" height="66" fill="#0A0A0A" />
<rect x="232" y="10" width="4" height="2" fill="#0A0A0A" />
<rect x="236" y="10" width="168" height="56" fill="#FAFAFA" />
<rect x="404" y="10" width="4" height="2" fill="#0A0A0A" />
<rect x="412" y="10" width="2" height="66" fill="#0A0A0A" />
<rect x="4" y="12" width="2" height="40" fill="#FAFAFA" />
<rect x="186" y="12" width="2" height="40" fill="#FAFAFA" />
<rect x="232" y="12" width="4" height="52" fill="#FAFAFA" />
<rect x="404" y="12" width="4" height="52" fill="#FAFAFA" />
<rect x="680" y="12" width="176" height="4" fill="#0A0A0A" />
<rect x="224" y="14" width="2" height="58" fill="#0A0A0A" />
<rect x="228" y="14" width="2" height="4" fill="#0A0A0A" />
<rect x="230" y="14" width="2" height="48" fill="#FAFAFA" />
<rect x="408" y="14" width="2" height="48" fill="#FAFAFA" />
<rect x="410" y="14" width="2" height="4" fill="#0A0A0A" />
<rect x="414" y="14" width="2" height="58" fill="#0A0A0A" />
<rect x="676" y="14" width="4" height="6" fill="#0A0A0A" />
<rect x="856" y="14" width="4" height="6" fill="#0A0A0A" />
<rect x="456" y="16" width="176" height="4" fill="#0A0A0A" />
<rect x="674" y="16" width="2" height="60" fill="#0A0A0A" />
<rect x="680" y="16" width="4" height="2" fill="#0A0A0A" />
<rect x="684" y="16" width="168" height="56" fill="#FAFAFA" />
<rect x="852" y="16" width="4" height="2" fill="#0A0A0A" />
<rect x="860" y="16" width="2" height="60" fill="#0A0A0A" />
<rect x="228" y="18" width="2" height="40" fill="#FAFAFA" />
<rect x="410" y="18" width="2" height="40" fill="#FAFAFA" />
<rect x="452" y="18" width="4" height="6" fill="#0A0A0A" />
<rect x="632" y="18" width="4" height="6" fill="#0A0A0A" />
<rect x="680" y="18" width="4" height="52" fill="#FAFAFA" />
<rect x="852" y="18" width="4" height="52" fill="#FAFAFA" />
<rect x="450" y="20" width="2" height="56" fill="#0A0A0A" />
<rect x="456" y="20" width="4" height="2" fill="#0A0A0A" />
<rect x="460" y="20" width="168" height="56" fill="#FAFAFA" />
<rect x="628" y="20" width="4" height="2" fill="#0A0A0A" />
<rect x="636" y="20" width="2" height="56" fill="#0A0A0A" />
<rect x="672" y="20" width="2" height="52" fill="#0A0A0A" />
<rect x="676" y="20" width="2" height="4" fill="#0A0A0A" />
<rect x="678" y="20" width="2" height="48" fill="#FAFAFA" />
<rect x="856" y="20" width="2" height="48" fill="#FAFAFA" />
<rect x="858" y="20" width="2" height="4" fill="#0A0A0A" />
<rect x="862" y="20" width="2" height="52" fill="#0A0A0A" />
<rect x="456" y="22" width="4" height="52" fill="#FAFAFA" />
<rect x="628" y="22" width="4" height="52" fill="#FAFAFA" />
<rect x="448" y="24" width="2" height="48" fill="#0A0A0A" />
<rect x="452" y="24" width="2" height="4" fill="#0A0A0A" />
<rect x="454" y="24" width="2" height="48" fill="#FAFAFA" />
<rect x="632" y="24" width="2" height="48" fill="#FAFAFA" />
<rect x="634" y="24" width="2" height="4" fill="#0A0A0A" />
<rect x="638" y="24" width="2" height="48" fill="#0A0A0A" />
<rect x="676" y="24" width="2" height="40" fill="#FAFAFA" />
<rect x="858" y="24" width="2" height="40" fill="#FAFAFA" />
<rect x="452" y="28" width="2" height="40" fill="#FAFAFA" />
<rect x="634" y="28" width="2" height="40" fill="#FAFAFA" />
<rect x="4" y="52" width="2" height="10" fill="#AAAAAA" />
<rect x="186" y="52" width="2" height="10" fill="#AAAAAA" />
<rect x="6" y="56" width="2" height="6" fill="#AAAAAA" />
<rect x="184" y="56" width="2" height="6" fill="#AAAAAA" />
<rect x="8" y="58" width="4" height="6" fill="#AAAAAA" />
<rect x="180" y="58" width="4" height="6" fill="#AAAAAA" />
<rect x="228" y="58" width="2" height="10" fill="#AAAAAA" />
<rect x="410" y="58" width="2" height="10" fill="#AAAAAA" />
<rect x="12" y="60" width="168" height="4" fill="#AAAAAA" />
<rect x="4" y="62" width="4" height="6" fill="#5A5A5A" />
<rect x="184" y="62" width="4" height="6" fill="#5A5A5A" />
<rect x="230" y="62" width="2" height="6" fill="#AAAAAA" />
<rect x="408" y="62" width="2" height="6" fill="#AAAAAA" />
<rect x="8" y="64" width="176" height="10" fill="#5A5A5A" />
<rect x="232" y="64" width="4" height="6" fill="#AAAAAA" />
<rect x="404" y="64" width="4" height="6" fill="#AAAAAA" />
<rect x="676" y="64" width="2" height="4" fill="#AAAAAA" />
<rect x="858" y="64" width="2" height="4" fill="#AAAAAA" />
<rect x="236" y="66" width="168" height="4" fill="#AAAAAA" />
<rect x="4" y="68" width="2" height="10" fill="#0A0A0A" />
<rect x="6" y="68" width="2" height="4" fill="#5A5A5A" />
<rect x="184" y="68" width="2" height="4" fill="#5A5A5A" />
<rect x="186" y="68" width="2" height="10" fill="#0A0A0A" />
<rect x="228" y="68" width="2" height="10" fill="#0A0A0A" />
<rect x="230" y="68" width="2" height="4" fill="#5A5A5A" />
<rect x="408" y="68" width="2" height="4" fill="#5A5A5A" />
<rect x="410" y="68" width="2" height="10" fill="#0A0A0A" />
<rect x="452" y="68" width="2" height="10" fill="#0A0A0A" />
<rect x="634" y="68" width="2" height="10" fill="#0A0A0A" />
<rect x="676" y="68" width="2" height="10" fill="#0A0A0A" />
<rect x="678" y="68" width="2" height="4" fill="#AAAAAA" />
<rect x="856" y="68" width="2" height="4" fill="#AAAAAA" />
<rect x="858" y="68" width="2" height="10" fill="#0A0A0A" />
<rect x="232" y="70" width="176" height="4" fill="#5A5A5A" />
<rect x="680" y="70" width="4" height="4" fill="#AAAAAA" />
<rect x="852" y="70" width="4" height="4" fill="#AAAAAA" />
<rect x="6" y="72" width="2" height="6" fill="#0A0A0A" />
<rect x="184" y="72" width="2" height="6" fill="#0A0A0A" />
<rect x="230" y="72" width="2" height="6" fill="#0A0A0A" />
<rect x="408" y="72" width="2" height="6" fill="#0A0A0A" />
<rect x="454" y="72" width="2" height="6" fill="#0A0A0A" />
<rect x="632" y="72" width="2" height="6" fill="#0A0A0A" />
<rect x="678" y="72" width="2" height="6" fill="#0A0A0A" />
<rect x="684" y="72" width="168" height="4" fill="#AAAAAA" />
<rect x="856" y="72" width="2" height="6" fill="#0A0A0A" />
<rect x="8" y="74" width="4" height="6" fill="#0A0A0A" />
<rect x="12" y="74" width="168" height="2" fill="#5A5A5A" />
<rect x="180" y="74" width="4" height="6" fill="#0A0A0A" />
<rect x="232" y="74" width="4" height="6" fill="#0A0A0A" />
<rect x="236" y="74" width="168" height="2" fill="#5A5A5A" />
<rect x="404" y="74" width="4" height="6" fill="#0A0A0A" />
<rect x="456" y="74" width="4" height="6" fill="#0A0A0A" />
<rect x="628" y="74" width="4" height="6" fill="#0A0A0A" />
<rect x="680" y="74" width="4" height="6" fill="#0A0A0A" />
<rect x="852" y="74" width="4" height="6" fill="#0A0A0A" />
<rect x="12" y="76" width="168" height="4" fill="#0A0A0A" />
<rect x="236" y="76" width="168" height="4" fill="#0A0A0A" />
<rect x="460" y="76" width="168" height="4" fill="#0A0A0A" />
<rect x="684" y="76" width="168" height="4" fill="#0A0A0A" />
</svg>