<?xml version="1.0" encoding="UTF-8" ?>
<svg version="1.1" width="352" height="80" xmlns="http://www.w3.org/2000/svg" shape-rendering="crispEdges">
<rect x="8" y="0" width="48" height="4" fill="#0A0A0A" />
<rect x="4" y="2" width="4" height="6" fill="#0A0A0A" />
<rect x="56" y="2" width="4" height="6" fill="#0A0A0A" />
<rect x="2" y="4" width="2" height="72" fill="#0A0A0A" />
<rect x="8" y="4" width="4" height="2" fill="#0A0A0A" />
<rect x="12" y="4" width="40" height="56" fill="#FAFAFA" />
<rect x="52" y="4" width="4" height="2" fill="#0A0A0A" />
<rect x="60" y="4" width="2" height="72" fill="#0A0A0A" />
<rect x="8" y="6" width="4" height="52" fill="#FAFAFA" />
<rect x="52" y="6" width="4" height="52" fill="#FAFAFA" />
<rect x="104" y="6" width="48" height="4" fill="#0A0A0A" />
<rect x="0" y="8" width="2" height="64" fill="#0A0A0A" />
<rect x="4" y="8" width="2" height="4" fill="#0A0A0A" />
<rect x="6" y="8" width="2" height="48" fill="#FAFAFA" />
<rect x="56" y="8" width="2" height="48" fill="#FAFAFA" />
<rect x="58" y="8" width="2" height="4" fill="#0A0A0A" />
<rect x="62" y="8" width="2" height="64" fill="#0A0A0A" />
<rect x="100" y="8" width="4" height="6" fill="#0A0A0A" />
<rect x="152" y="8" width="4" height="6" fill="#0A0A0A" />
<rect x="98" y="10" width="2" height="66" fill="#0A0A0A" />
<rect x="104" y="10" width="4" height="2" fill="#0A0A0A" />
<rect x="108" y="10" width="40" height="56" fill="#FAFAFA" />
<rect x="148" y="10" width="4" height="2" fill="#0A0A0A" />
<rect x="156" y="10" width="2" height="66" fill="#0A0A0A" />
<rect x="4" y="12" width="2" height="40" fill="#FAFAFA" />
<rect x="58" y="12" width="2" height="40" fill="#FAFAFA" />
<rect x="104" y="12" width="4" height="52" fill="#FAFAFA" />
<rect x="148" y="12" width="4" height="52" fill="#FAFAFA" />
<rect x="296" y="12" width="48" height="4" fill="#0A0A0A" />
<rect x="96" y="14" width="2" height="58" fill="#0A0A0A" />
<rect x="100" y="14" width="2" height="4" fill="#0A0A0A" />
<rect x="102" y="14" width="2" height="48" fill="#FAFAFA" />
<rect x="152" y="14" width="2" height="48" fill="#FAFAFA" />
<rect x="154" y="14" width="2" height="4" fill="#0A0A0A" />
<rect x="158" y="14" width="2" height="58" fill="#0A0A0A" />
<rect x="292" y="14" width="4" height="6" fill="#0A0A0A" />
<rect x="344" y="14" width="4" height="6" fill="#0A0A0A" />
<rect x="200" y="16" width="48" height="4" fill="#0A0A0A" />
<rect x="290" y="16" width="2" height="60" fill="#0A0A0A" />
<rect x="296" y="16" width="4" height="2" fill="#0A0A0A" />
<rect x="300" y="16" width="40" height="56" fill="#FAFAFA" />
<rect x="340" y="16" width="4" height="2" fill="#0A0A0A" />
<rect x="348" y="16" width="2" height="60" fill="#0A0A0A" />
<rect x="100" y="18" width="2" height="40" fill="#FAFAFA" />
<rect x="154" y="18" width="2" height="40" fill="#FAFAFA" />
<rect x="196" y="18" width="4" height="6" fill="#0A0A0A" />
<rect x="248" y="18" width="4" height="6" fill="#0A0A0A" />
<rect x="296" y="18" width="4" height="52" fill="#FAFAFA" />
<rect x="340" y="18" width="4" height="52" fill="#FAFAFA" />
<rect x="194" y="20" width="2" height="56" fill="#0A0A0A" />
<rect x="200" y="20" width="4" height="2" fill="#0A0A0A" />
<rect x="204" y="20" width="40" height="56" fill="#FAFAFA" />
<rect x="244" y="20" width="4" height="2" fill="#0A0A0A" />
<rect x="252" y="20" width="2" height="56" fill="#0A0A0A" />
<rect x="288" y="20" width="2" height="52" fill="#0A0A0A" />
<rect x="292" y="20" width="2" height="4" fill="#0A0A0A" />
<rect x="294" y="20" width="2" height="48" fill="#FAFAFA" />
<rect x="344" y="20" width="2" height="48" fill="#FAFAFA" />
<rect x="346" y="20" width="2" height="4" fill="#0A0A0A" />
<rect x="350" y="20" width="2" height="52" fill="#0A0A0A" />
<rect x="200" y="22" width="4" height="52" fill="#FAFAFA" />
<rect x="244" y="22" width="4" height="52" fill="#FAFAFA" />
<rect x="192" y="24" width="2" height="48" fill="#0A0A0A" />
<rect x="196" y="24" width="2" height="4" fill="#0A0A0A" />
<rect x="198" y="24" width="2" height="48" fill="#FAFAFA" />
<rect x="248" y="24" width="2" height="48" fill="#FAFAFA" />
<rect x="250" y="24" width="2" height="4" fill="#0A0A0A" />
<rect x="254" y="24" width="2" height="48" fill="#0A0A0A" />
<rect x="292" y="24" width="2" height="40" fill="#FAFAFA" />
<rect x="346" y="24" width="2" height="40" fill="#FAFAFA" />
<rect x="196" y="28" width="2" height="40" fill="#FAFAFA" />
<rect x="250" y="28" width="2" height="40" fill="#FAFAFA" />
<rect x="4" y="52" width="2" height="10" fill="#AAAAAA" />
<rect x="58" y="52" width="2" height="10" fill="#AAAAAA" />
<rect x="6" y="56" width="2" height="6" fill="#AAAAAA" />
<rect x="56" y="56" width="2" height="6" fill="#AAAAAA" />
<rect x="8" y="58" width="4" height="6" fill="#AAAAAA" />
<rect x="52" y="58" width="4" height="6" fill="#AAAAAA" />
<rect x="100" y="58" width="2" height="10" fill="#AAAAAA" />
<rect x="154" y="58" width="2" height="10" fill="#AAAAAA" />
<rect x="12" y="60" width="40" height="4" fill="#AAAAAA" />
<rect x="4" y="62" width="4" height="6" fill="#5A5A5A" />
<rect x="56" y="62" width="4" height="6" fill="#5A5A5A" />
<rect x="102" y="62" width="2" height="6" fill="#AAAAAA" />
<rect x="152" y="62" width="2" height="6" fill="#AAAAAA" />
<rect x="8" y="64" width="48" height="10" fill="#5A5A5A" />
<rect x="104" y="64" width="4" height="6" fill="#AAAAAA" />
<rect x="148" y="64" width="4" height="6" fill="#AAAAAA" />
<rect x="292" y="64" width="2" height="4" fill="#AAAAAA" />
<rect x="346" y="64" width="2" height="4" fill="#AAAAAA" />
<rect x="108" y="66" width="40" height="4" fill="#AAAAAA" />
<rect x="4" y="68" width="2" height="10" fill="#0A0A0A" />
<rect x="6" y="68" width="2" height="4" fill="#5A5A5A" />
<rect x="56" y="68" width="2" height="4" fill="#5A5A5A" />
<rect x="58" y="68" width="2" height="10" fill="#0A0A0A" />
<rect x="100" y="68" width="2" height="10" fill="#0A0A0A" />
<rect x="102" y="68" width="2" height="4" fill="#5A5A5A" />
<rect x="152" y="68" width="2" height="4" fill="#5A5A5A" />
<rect x="154" y="68" width="2" height="10" fill="#0A0A0A" />
<rect x="196" y="68" width="2" height="10" fill="#0A0A0A" />
<rect x="250" y="68" width="2" height="10" fill="#0A0A0A" />
<rect x="292" y="68" width="2" height="10" fill="#0A0A0A" />
<rect x="294" y="68" width="2" height="4" fill="#AAAAAA" />
<rect x="344" y="68" width="2" height="4" fill="#AAAAAA" />
<rect x="346" y="68" width="2" height="10" fill="#0A0A0A" />
<rect x="104" y="70" width="48" height="4" fill="#5A5A5A" />
<rect x="296" y="70" width="4" height="4" fill="#AAAAAA" />
<rect x="340" y="70" width="4" height="4" fill="#AAAAAA" />
<rect x="6" y="72" width="2" height="6" fill="#0A0A0A" />
<rect x="56" y="72" width="2" height="6" fill="#0A0A0A" />
<rect x="102" y="72" width="2" height="6" fill="#0A0A0A" />
<rect x="152" y="72" width="2" height="6" fill="#0A0A0A" />
<rect x="198" y="72" width="2" height="6" fill="#0A0A0A" />
<rect x="248" y="72" width="2" height="6" fill="#0A0A0A" />
<rect x="294" y="72" width="2" height="6" fill="#0A0A0A" />
<rect x="300" y="72" width="40" height="4" fill="#AAAAAA" />
<rect x="344" y="72" width="2" height="6" fill="#0A0A0A" />
<rect x="8" y="74" width="4" height="6" fill="#0A0A0A" />
<rect x="12" y="74" width="40" height="2" fill="#5A5A5A" />
<rect x="52" y="74" width="4" height="6" fill="#0A0A0A" />
<rect x="104" y="74" width="4" height="6" fill="#0A0A0A" />
<rect x="108" y="74" width="40" height="2" fill="#5A5A5A" />
<rect x="148" y="74" width="4" height="6" fill="#0A0A0A" />
<rect x="200" y="74" width="4" height="6" fill="#0A0A0A" />
<rect x="244" y="74" width="4" height="6" fill="#0A0A0A" />
<rect x="296" y="74" width="4" height="6" fill="#0A0A0A" />
<rect x="340" y="74" width="4" height="6" fill="#0A0A0A" />
<rect x="12" y="76" width="40" height="4" fill="#0A0A0A" />
<rect x="108" y="76" width="40" height="4" fill="#0A0A0A" />
<rect x="204" y="76" width="40" height="4" fill="#0A0A0A" />
<rect x="300" y="76" width="40" height="4" fill="#0A0A0A" />
</svg>