<?xml version="1.0" encoding="UTF-8" ?>
<svg version="1.1" width="224" height="32" xmlns="http://www.w3.org/2000/svg" shape-rendering="crispEdges">
<rect x="4" y="0" width="24" height="4" fill="#0A0A0A" />
<rect x="68" y="0" width="24" height="10" fill="#0A0A0A" />
<rect x="132" y="0" width="24" height="4" fill="#FAFAFA" />
<rect x="196" y="0" width="24" height="10" fill="#FAFAFA" />
<rect x="2" y="2" width="2" height="28" fill="#0A0A0A" />
<rect x="28" y="2" width="2" height="28" fill="#0A0A0A" />
<rect x="66" y="2" width="2" height="28" fill="#0A0A0A" />
<rect x="92" y="2" width="2" height="28" fill="#0A0A0A" />
<rect x="130" y="2" width="2" height="28" fill="#FAFAFA" />
<rect x="156" y="2" width="2" height="28" fill="#FAFAFA" />
<rect x="194" y="2" width="2" height="28" fill="#FAFAFA" />
<rect x="220" y="2" width="2" height="28" fill="#FAFAFA" />
<rect x="0" y="4" width="2" height="24" fill="#0A0A0A" />
<rect x="4" y="4" width="2" height="2" fill="#0A0A0A" />
<rect x="6" y="4" width="20" height="24" fill="#FAFAFA" />
<rect x="26" y="4" width="2" height="2" fill="#0A0A0A" />
<rect x="30" y="4" width="2" height="24" fill="#0A0A0A" />
<rect x="64" y="4" width="2" height="24" fill="#0A0A0A" />
<rect x="94" y="4" width="2" height="24" fill="#0A0A0A" />
<rect x="128" y="4" width="2" height="24" fill="#FAFAFA" />
<rect x="132" y="4" width="2" height="2" fill="#FAFAFA" />
<rect x="134" y="4" width="20" height="24" fill="#0A0A0A" />
<rect x="154" y="4" width="2" height="2" fill="#FAFAFA" />
<rect x="158" y="4" width="2" height="24" fill="#FAFAFA" />
<rect x="192" y="4" width="2" height="24" fill="#FAFAFA" />
<rect x="222" y="4" width="2" height="24" fill="#FAFAFA" />
<rect x="4" y="6" width="2" height="20" fill="#FAFAFA" />
<rect x="26" y="6" width="2" height="20" fill="#FAFAFA" />
<rect x="132" y="6" width="2" height="20" fill="#0A0A0A" />
<rect x="154" y="6" width="2" height="20" fill="#0A0A0A" />
<rect x="68" y="10" width="16" height="2" fill="#0A0A0A" />
<rect x="84" y="10" width="4" height="4" fill="#FAFAFA" />
<rect x="88" y="10" width="4" height="22" fill="#0A0A0A" />
<rect x="196" y="10" width="16" height="2" fill="#FAFAFA" />
<rect x="212" y="10" width="4" height="4" fill="#0A0A0A" />
<rect x="216" y="10" width="4" height="22" fill="#FAFAFA" />
<rect x="68" y="12" width="14" height="2" fill="#0A0A0A" />
<rect x="82" y="12" width="2" height="6" fill="#FAFAFA" />
<rect x="196" y="12" width="14" height="2" fill="#FAFAFA" />
<rect x="210" y="12" width="2" height="6" fill="#0A0A0A" />
<rect x="68" y="14" width="4" height="18" fill="#0A0A0A" />
<rect x="72" y="14" width="4" height="4" fill="#FAFAFA" />
<rect x="76" y="14" width="4" height="2" fill="#0A0A0A" />
<rect x="80" y="14" width="2" height="6" fill="#FAFAFA" />
<rect x="84" y="14" width="2" height="2" fill="#FAFAFA" />
<rect x="86" y="14" width="2" height="18" fill="#0A0A0A" />
<rect x="196" y="14" width="4" height="18" fill="#FAFAFA" />
<rect x="200" y="14" width="4" height="4" fill="#0A0A0A" />
<rect x="204" y="14" width="4" height="2" fill="#FAFAFA" />
<rect x="208" y="14" width="2" height="6" fill="#0A0A0A" />
<rect x="212" y="14" width="2" height="2" fill="#0A0A0A" />
<rect x="214" y="14" width="2" height="18" fill="#FAFAFA" />
<rect x="76" y="16" width="4" height="6" fill="#FAFAFA" />
<rect x="84" y="16" width="2" height="16" fill="#0A0A0A" />
<rect x="204" y="16" width="4" height="6" fill="#0A0A0A" />
<rect x="212" y="16" width="2" height="16" fill="#FAFAFA" />
<rect x="72" y="18" width="2" height="14" fill="#0A0A0A" />
<rect x="74" y="18" width="2" height="2" fill="#FAFAFA" />
<rect x="82" y="18" width="2" height="14" fill="#0A0A0A" />
<rect x="200" y="18" width="2" height="14" fill="#FAFAFA" />
<rect x="202" y="18" width="2" height="2" fill="#0A0A0A" />
<rect x="210" y="18" width="2" height="14" fill="#FAFAFA" />
<rect x="74" y="20" width="2" height="12" fill="#0A0A0A" />
<rect x="80" y="20" width="2" height="12" fill="#0A0A0A" />
<rect x="202" y="20" width="2" height="12" fill="#FAFAFA" />
<rect x="208" y="20" width="2" height="12" fill="#FAFAFA" />
<rect x="76" y="22" width="4" height="10" fill="#0A0A0A" />
<rect x="204" y="22" width="4" height="10" fill="#FAFAFA" />
<rect x="4" y="26" width="2" height="6" fill="#0A0A0A" />
<rect x="26" y="26" width="2" height="6" fill="#0A0A0A" />
<rect x="132" y="26" width="2" height="6" fill="#FAFAFA" />
<rect x="154" y="26" width="2" height="6" fill="#FAFAFA" />
<rect x="6" y="28" width="20" height="4" fill="#0A0A0A" />
<rect x="134" y="28" width="20" height="4" fill="#FAFAFA" />
</svg>