<?xml version="1.0" encoding="UTF-8" ?>
<svg version="1.1" width="224" height="32" xmlns="http://www.w3.org/2000/svg" shape-rendering="crispEdges">
<rect x="12" y="0" width="8" height="8" fill="#0A0A0A" />
<rect x="76" y="0" width="8" height="8" fill="#5A5A5A" />
<rect x="140" y="0" width="8" height="8" fill="#FAFAFA" />
<rect x="204" y="0" width="8" height="8" fill="#AAAAAA" />
<rect x="8" y="2" width="4" height="8" fill="#0A0A0A" />
<rect x="20" y="2" width="4" height="28" fill="#0A0A0A" />
<rect x="72" y="2" width="4" height="8" fill="#5A5A5A" />
<rect x="84" y="2" width="4" height="28" fill="#5A5A5A" />
<rect x="136" y="2" width="4" height="8" fill="#FAFAFA" />
<rect x="148" y="2" width="4" height="28" fill="#FAFAFA" />
<rect x="200" y="2" width="4" height="8" fill="#AAAAAA" />
<rect x="212" y="2" width="4" height="28" fill="#AAAAAA" />
<rect x="6" y="4" width="2" height="24" fill="#0A0A0A" />
<rect x="24" y="4" width="2" height="24" fill="#0A0A0A" />
<rect x="70" y="4" width="2" height="24" fill="#5A5A5A" />
<rect x="88" y="4" width="2" height="24" fill="#5A5A5A" />
<rect x="134" y="4" width="2" height="24" fill="#FAFAFA" />
<rect x="152" y="4" width="2" height="24" fill="#FAFAFA" />
<rect x="198" y="4" width="2" height="24" fill="#AAAAAA" />
<rect x="216" y="4" width="2" height="24" fill="#AAAAAA" />
<rect x="4" y="6" width="2" height="20" fill="#0A0A0A" />
<rect x="26" y="6" width="2" height="20" fill="#0A0A0A" />
<rect x="68" y="6" width="2" height="20" fill="#5A5A5A" />
<rect x="90" y="6" width="2" height="20" fill="#5A5A5A" />
<rect x="132" y="6" width="2" height="20" fill="#FAFAFA" />
<rect x="154" y="6" width="2" height="20" fill="#FAFAFA" />
<rect x="196" y="6" width="2" height="20" fill="#AAAAAA" />
<rect x="218" y="6" width="2" height="20" fill="#AAAAAA" />
<rect x="2" y="8" width="2" height="16" fill="#0A0A0A" />
<rect x="16" y="8" width="4" height="24" fill="#0A0A0A" />
<rect x="28" y="8" width="2" height="16" fill="#0A0A0A" />
<rect x="66" y="8" width="2" height="16" fill="#5A5A5A" />
<rect x="80" y="8" width="4" height="24" fill="#5A5A5A" />
<rect x="92" y="8" width="2" height="16" fill="#5A5A5A" />
<rect x="130" y="8" width="2" height="16" fill="#FAFAFA" />
<rect x="144" y="8" width="4" height="24" fill="#FAFAFA" />
<rect x="156" y="8" width="2" height="16" fill="#FAFAFA" />
<rect x="194" y="8" width="2" height="16" fill="#AAAAAA" />
<rect x="208" y="8" width="4" height="24" fill="#AAAAAA" />
<rect x="220" y="8" width="2" height="16" fill="#AAAAAA" />
<rect x="8" y="10" width="2" height="2" fill="#0A0A0A" />
<rect x="72" y="10" width="2" height="2" fill="#5A5A5A" />
<rect x="136" y="10" width="2" height="2" fill="#FAFAFA" />
<rect x="200" y="10" width="2" height="2" fill="#AAAAAA" />
<rect x="0" y="12" width="2" height="8" fill="#0A0A0A" />
<rect x="30" y="12" width="2" height="8" fill="#0A0A0A" />
<rect x="64" y="12" width="2" height="8" fill="#5A5A5A" />
<rect x="94" y="12" width="2" height="8" fill="#5A5A5A" />
<rect x="128" y="12" width="2" height="8" fill="#FAFAFA" />
<rect x="158" y="12" width="2" height="8" fill="#FAFAFA" />
<rect x="192" y="12" width="2" height="8" fill="#AAAAAA" />
<rect x="222" y="12" width="2" height="8" fill="#AAAAAA" />
<rect x="8" y="20" width="2" height="10" fill="#0A0A0A" />
<rect x="72" y="20" width="2" height="10" fill="#5A5A5A" />
<rect x="136" y="20" width="2" height="10" fill="#FAFAFA" />
<rect x="200" y="20" width="2" height="10" fill="#AAAAAA" />
<rect x="10" y="22" width="2" height="8" fill="#0A0A0A" />
<rect x="74" y="22" width="2" height="8" fill="#5A5A5A" />
<rect x="138" y="22" width="2" height="8" fill="#FAFAFA" />
<rect x="202" y="22" width="2" height="8" fill="#AAAAAA" />
<rect x="12" y="24" width="4" height="8" fill="#0A0A0A" />
<rect x="76" y="24" width="4" height="8" fill="#5A5A5A" />
<rect x="140" y="24" width="4" height="8" fill="#FAFAFA" />
<rect x="204" y="24" width="4" height="8" fill="#AAAAAA" />
</svg>