<?xml version="1.0" encoding="UTF-8" ?>
<svg version="1.1" width="224" height="96" xmlns="http://www.w3.org/2000/svg" shape-rendering="crispEdges">
<rect x="14" y="0" width="4" height="12" fill="#0A0A0A" />
<rect x="78" y="0" width="4" height="12" fill="#5A5A5A" />
<rect x="142" y="0" width="4" height="12" fill="#FAFAFA" />
<rect x="206" y="0" width="4" height="12" fill="#AAAAAA" />
<rect x="4" y="2" width="4" height="8" fill="#0A0A0A" />
<rect x="12" y="2" width="2" height="12" fill="#0A0A0A" />
<rect x="18" y="2" width="2" height="12" fill="#0A0A0A" />
<rect x="24" y="2" width="4" height="8" fill="#0A0A0A" />
<rect x="68" y="2" width="4" height="8" fill="#5A5A5A" />
<rect x="76" y="2" width="2" height="12" fill="#5A5A5A" />
<rect x="82" y="2" width="2" height="12" fill="#5A5A5A" />
<rect x="88" y="2" width="4" height="8" fill="#5A5A5A" />
<rect x="132" y="2" width="4" height="8" fill="#FAFAFA" />
<rect x="140" y="2" width="2" height="12" fill="#FAFAFA" />
<rect x="146" y="2" width="2" height="12" fill="#FAFAFA" />
<rect x="152" y="2" width="4" height="8" fill="#FAFAFA" />
<rect x="196" y="2" width="4" height="8" fill="#AAAAAA" />
<rect x="204" y="2" width="2" height="12" fill="#AAAAAA" />
<rect x="210" y="2" width="2" height="12" fill="#AAAAAA" />
<rect x="216" y="2" width="4" height="8" fill="#AAAAAA" />
<rect x="2" y="4" width="2" height="4" fill="#0A0A0A" />
<rect x="8" y="4" width="2" height="24" fill="#0A0A0A" />
<rect x="22" y="4" width="2" height="24" fill="#0A0A0A" />
<rect x="28" y="4" width="2" height="4" fill="#0A0A0A" />
<rect x="66" y="4" width="2" height="4" fill="#5A5A5A" />
<rect x="72" y="4" width="2" height="24" fill="#5A5A5A" />
<rect x="86" y="4" width="2" height="24" fill="#5A5A5A" />
<rect x="92" y="4" width="2" height="4" fill="#5A5A5A" />
<rect x="130" y="4" width="2" height="4" fill="#FAFAFA" />
<rect x="136" y="4" width="2" height="24" fill="#FAFAFA" />
<rect x="150" y="4" width="2" height="24" fill="#FAFAFA" />
<rect x="156" y="4" width="2" height="4" fill="#FAFAFA" />
<rect x="194" y="4" width="2" height="4" fill="#AAAAAA" />
<rect x="200" y="4" width="2" height="24" fill="#AAAAAA" />
<rect x="214" y="4" width="2" height="24" fill="#AAAAAA" />
<rect x="220" y="4" width="2" height="4" fill="#AAAAAA" />
<rect x="10" y="6" width="2" height="20" fill="#0A0A0A" />
<rect x="20" y="6" width="2" height="20" fill="#0A0A0A" />
<rect x="74" y="6" width="2" height="20" fill="#5A5A5A" />
<rect x="84" y="6" width="2" height="20" fill="#5A5A5A" />
<rect x="138" y="6" width="2" height="20" fill="#FAFAFA" />
<rect x="148" y="6" width="2" height="20" fill="#FAFAFA" />
<rect x="202" y="6" width="2" height="20" fill="#AAAAAA" />
<rect x="212" y="6" width="2" height="20" fill="#AAAAAA" />
<rect x="6" y="10" width="2" height="20" fill="#0A0A0A" />
<rect x="24" y="10" width="2" height="20" fill="#0A0A0A" />
<rect x="70" y="10" width="2" height="20" fill="#5A5A5A" />
<rect x="88" y="10" width="2" height="20" fill="#5A5A5A" />
<rect x="134" y="10" width="2" height="20" fill="#FAFAFA" />
<rect x="152" y="10" width="2" height="20" fill="#FAFAFA" />
<rect x="198" y="10" width="2" height="20" fill="#AAAAAA" />
<rect x="216" y="10" width="2" height="20" fill="#AAAAAA" />
<rect x="2" y="12" width="4" height="8" fill="#0A0A0A" />
<rect x="26" y="12" width="4" height="8" fill="#0A0A0A" />
<rect x="66" y="12" width="4" height="8" fill="#5A5A5A" />
<rect x="90" y="12" width="4" height="8" fill="#5A5A5A" />
<rect x="130" y="12" width="4" height="8" fill="#FAFAFA" />
<rect x="154" y="12" width="4" height="8" fill="#FAFAFA" />
<rect x="194" y="12" width="4" height="8" fill="#AAAAAA" />
<rect x="218" y="12" width="4" height="8" fill="#AAAAAA" />
<rect x="0" y="14" width="2" height="4" fill="#0A0A0A" />
<rect x="30" y="14" width="2" height="4" fill="#0A0A0A" />
<rect x="64" y="14" width="2" height="4" fill="#5A5A5A" />
<rect x="94" y="14" width="2" height="4" fill="#5A5A5A" />
<rect x="128" y="14" width="2" height="4" fill="#FAFAFA" />
<rect x="158" y="14" width="2" height="4" fill="#FAFAFA" />
<rect x="192" y="14" width="2" height="4" fill="#AAAAAA" />
<rect x="222" y="14" width="2" height="4" fill="#AAAAAA" />
<rect x="12" y="18" width="2" height="12" fill="#0A0A0A" />
<rect x="18" y="18" width="2" height="12" fill="#0A0A0A" />
<rect x="76" y="18" width="2" height="12" fill="#5A5A5A" />
<rect x="82" y="18" width="2" height="12" fill="#5A5A5A" />
<rect x="140" y="18" width="2" height="12" fill="#FAFAFA" />
<rect x="146" y="18" width="2" height="12" fill="#FAFAFA" />
<rect x="204" y="18" width="2" height="12" fill="#AAAAAA" />
<rect x="210" y="18" width="2" height="12" fill="#AAAAAA" />
<rect x="14" y="20" width="4" height="12" fill="#0A0A0A" />
<rect x="78" y="20" width="4" height="12" fill="#5A5A5A" />
<rect x="142" y="20" width="4" height="12" fill="#FAFAFA" />
<rect x="206" y="20" width="4" height="12" fill="#AAAAAA" />
<rect x="4" y="22" width="2" height="8" fill="#0A0A0A" />
<rect x="26" y="22" width="2" height="8" fill="#0A0A0A" />
<rect x="68" y="22" width="2" height="8" fill="#5A5A5A" />
<rect x="90" y="22" width="2" height="8" fill="#5A5A5A" />
<rect x="132" y="22" width="2" height="8" fill="#FAFAFA" />
<rect x="154" y="22" width="2" height="8" fill="#FAFAFA" />
<rect x="196" y="22" width="2" height="8" fill="#AAAAAA" />
<rect x="218" y="22" width="2" height="8" fill="#AAAAAA" />
<rect x="2" y="24" width="2" height="4" fill="#0A0A0A" />
<rect x="28" y="24" width="2" height="4" fill="#0A0A0A" />
<rect x="66" y="24" width="2" height="4" fill="#5A5A5A" />
<rect x="92" y="24" width="2" height="4" fill="#5A5A5A" />
<rect x="130" y="24" width="2" height="4" fill="#FAFAFA" />
<rect x="156" y="24" width="2" height="4" fill="#FAFAFA" />
<rect x="194" y="24" width="2" height="4" fill="#AAAAAA" />
<rect x="220" y="24" width="2" height="4" fill="#AAAAAA" />
<rect x="2" y="64" width="6" height="10" fill="#0A0A0A" />
<rect x="24" y="64" width="6" height="10" fill="#0A0A0A" />
<rect x="66" y="64" width="6" height="10" fill="#5A5A5A" />
<rect x="88" y="64" width="6" height="10" fill="#5A5A5A" />
<rect x="130" y="64" width="6" height="10" fill="#FAFAFA" />
<rect x="152" y="64" width="6" height="10" fill="#FAFAFA" />
<rect x="194" y="64" width="6" height="10" fill="#AAAAAA" />
<rect x="216" y="64" width="6" height="10" fill="#AAAAAA" />
<rect x="0" y="66" width="2" height="6" fill="#0A0A0A" />
<rect x="8" y="66" width="2" height="28" fill="#0A0A0A" />
<rect x="22" y="66" width="2" height="28" fill="#0A0A0A" />
<rect x="30" y="66" width="2" height="6" fill="#0A0A0A" />
<rect x="64" y="66" width="2" height="6" fill="#5A5A5A" />
<rect x="72" y="66" width="2" height="28" fill="#5A5A5A" />
<rect x="86" y="66" width="2" height="28" fill="#5A5A5A" />
<rect x="94" y="66" width="2" height="6" fill="#5A5A5A" />
<rect x="128" y="66" width="2" height="6" fill="#FAFAFA" />
<rect x="136" y="66" width="2" height="28" fill="#FAFAFA" />
<rect x="150" y="66" width="2" height="28" fill="#FAFAFA" />
<rect x="158" y="66" width="2" height="6" fill="#FAFAFA" />
<rect x="192" y="66" width="2" height="6" fill="#AAAAAA" />
<rect x="200" y="66" width="2" height="28" fill="#AAAAAA" />
<rect x="214" y="66" width="2" height="28" fill="#AAAAAA" />
<rect x="222" y="66" width="2" height="6" fill="#AAAAAA" />
<rect x="10" y="68" width="2" height="24" fill="#0A0A0A" />
<rect x="20" y="68" width="2" height="24" fill="#0A0A0A" />
<rect x="74" y="68" width="2" height="24" fill="#5A5A5A" />
<rect x="84" y="68" width="2" height="24" fill="#5A5A5A" />
<rect x="138" y="68" width="2" height="24" fill="#FAFAFA" />
<rect x="148" y="68" width="2" height="24" fill="#FAFAFA" />
<rect x="202" y="68" width="2" height="24" fill="#AAAAAA" />
<rect x="212" y="68" width="2" height="24" fill="#AAAAAA" />
<rect x="12" y="70" width="2" height="20" fill="#0A0A0A" />
<rect x="18" y="70" width="2" height="20" fill="#0A0A0A" />
<rect x="76" y="70" width="2" height="20" fill="#5A5A5A" />
<rect x="82" y="70" width="2" height="20" fill="#5A5A5A" />
<rect x="140" y="70" width="2" height="20" fill="#FAFAFA" />
<rect x="146" y="70" width="2" height="20" fill="#FAFAFA" />
<rect x="204" y="70" width="2" height="20" fill="#AAAAAA" />
<rect x="210" y="70" width="2" height="20" fill="#AAAAAA" />
<rect x="14" y="72" width="4" height="16" fill="#0A0A0A" />
<rect x="78" y="72" width="4" height="16" fill="#5A5A5A" />
<rect x="142" y="72" width="4" height="16" fill="#FAFAFA" />
<rect x="206" y="72" width="4" height="16" fill="#AAAAAA" />
<rect x="4" y="74" width="4" height="2" fill="#0A0A0A" />
<rect x="24" y="74" width="4" height="2" fill="#0A0A0A" />
<rect x="68" y="74" width="4" height="2" fill="#5A5A5A" />
<rect x="88" y="74" width="4" height="2" fill="#5A5A5A" />
<rect x="132" y="74" width="4" height="2" fill="#FAFAFA" />
<rect x="152" y="74" width="4" height="2" fill="#FAFAFA" />
<rect x="196" y="74" width="4" height="2" fill="#AAAAAA" />
<rect x="216" y="74" width="4" height="2" fill="#AAAAAA" />
<rect x="6" y="76" width="2" height="2" fill="#0A0A0A" />
<rect x="24" y="76" width="2" height="2" fill="#0A0A0A" />
<rect x="70" y="76" width="2" height="2" fill="#5A5A5A" />
<rect x="88" y="76" width="2" height="2" fill="#5A5A5A" />
<rect x="134" y="76" width="2" height="2" fill="#FAFAFA" />
<rect x="152" y="76" width="2" height="2" fill="#FAFAFA" />
<rect x="198" y="76" width="2" height="2" fill="#AAAAAA" />
<rect x="216" y="76" width="2" height="2" fill="#AAAAAA" />
<rect x="6" y="82" width="2" height="14" fill="#0A0A0A" />
<rect x="24" y="82" width="2" height="14" fill="#0A0A0A" />
<rect x="70" y="82" width="2" height="14" fill="#5A5A5A" />
<rect x="88" y="82" width="2" height="14" fill="#5A5A5A" />
<rect x="134" y="82" width="2" height="14" fill="#FAFAFA" />
<rect x="152" y="82" width="2" height="14" fill="#FAFAFA" />
<rect x="198" y="82" width="2" height="14" fill="#AAAAAA" />
<rect x="216" y="82" width="2" height="14" fill="#AAAAAA" />
<rect x="4" y="84" width="2" height="12" fill="#0A0A0A" />
<rect x="26" y="84" width="2" height="12" fill="#0A0A0A" />
<rect x="68" y="84" width="2" height="12" fill="#5A5A5A" />
<rect x="90" y="84" width="2" height="12" fill="#5A5A5A" />
<rect x="132" y="84" width="2" height="12" fill="#FAFAFA" />
<rect x="154" y="84" width="2" height="12" fill="#FAFAFA" />
<rect x="196" y="84" width="2" height="12" fill="#AAAAAA" />
<rect x="218" y="84" width="2" height="12" fill="#AAAAAA" />
<rect x="2" y="86" width="2" height="10" fill="#0A0A0A" />
<rect x="28" y="86" width="2" height="10" fill="#0A0A0A" />
<rect x="66" y="86" width="2" height="10" fill="#5A5A5A" />
<rect x="92" y="86" width="2" height="10" fill="#5A5A5A" />
<rect x="130" y="86" width="2" height="10" fill="#FAFAFA" />
<rect x="156" y="86" width="2" height="10" fill="#FAFAFA" />
<rect x="194" y="86" width="2" height="10" fill="#AAAAAA" />
<rect x="220" y="86" width="2" height="10" fill="#AAAAAA" />
<rect x="0" y="88" width="2" height="6" fill="#0A0A0A" />
<rect x="30" y="88" width="2" height="6" fill="#0A0A0A" />
<rect x="64" y="88" width="2" height="6" fill="#5A5A5A" />
<rect x="94" y="88" width="2" height="6" fill="#5A5A5A" />
<rect x="128" y="88" width="2" height="6" fill="#FAFAFA" />
<rect x="158" y="88" width="2" height="6" fill="#FAFAFA" />
<rect x="192" y="88" width="2" height="6" fill="#AAAAAA" />
<rect x="222" y="88" width="2" height="6" fill="#AAAAAA" />
</svg>