<?xml version="1.0" encoding="UTF-8" ?>
<svg version="1.1" width="224" height="96" xmlns="http://www.w3.org/2000/svg" shape-rendering="crispEdges">
<rect x="14" y="0" width="4" height="32" fill="#0A0A0A" />
<rect x="24" y="0" width="4" height="4" fill="#0A0A0A" />
<rect x="78" y="0" width="4" height="32" fill="#5A5A5A" />
<rect x="88" y="0" width="4" height="4" fill="#5A5A5A" />
<rect x="142" y="0" width="4" height="32" fill="#FAFAFA" />
<rect x="152" y="0" width="4" height="4" fill="#FAFAFA" />
<rect x="206" y="0" width="4" height="32" fill="#AAAAAA" />
<rect x="216" y="0" width="4" height="4" fill="#AAAAAA" />
<rect x="12" y="2" width="2" height="28" fill="#0A0A0A" />
<rect x="18" y="2" width="2" height="28" fill="#0A0A0A" />
<rect x="28" y="2" width="2" height="28" fill="#0A0A0A" />
<rect x="76" y="2" width="2" height="28" fill="#5A5A5A" />
<rect x="82" y="2" width="2" height="28" fill="#5A5A5A" />
<rect x="92" y="2" width="2" height="28" fill="#5A5A5A" />
<rect x="140" y="2" width="2" height="28" fill="#FAFAFA" />
<rect x="146" y="2" width="2" height="28" fill="#FAFAFA" />
<rect x="156" y="2" width="2" height="28" fill="#FAFAFA" />
<rect x="204" y="2" width="2" height="28" fill="#AAAAAA" />
<rect x="210" y="2" width="2" height="28" fill="#AAAAAA" />
<rect x="220" y="2" width="2" height="28" fill="#AAAAAA" />
<rect x="10" y="4" width="2" height="24" fill="#0A0A0A" />
<rect x="26" y="4" width="2" height="4" fill="#0A0A0A" />
<rect x="74" y="4" width="2" height="24" fill="#5A5A5A" />
<rect x="90" y="4" width="2" height="4" fill="#5A5A5A" />
<rect x="138" y="4" width="2" height="24" fill="#FAFAFA" />
<rect x="154" y="4" width="2" height="4" fill="#FAFAFA" />
<rect x="202" y="4" width="2" height="24" fill="#AAAAAA" />
<rect x="218" y="4" width="2" height="4" fill="#AAAAAA" />
<rect x="8" y="6" width="2" height="20" fill="#0A0A0A" />
<rect x="30" y="6" width="2" height="20" fill="#0A0A0A" />
<rect x="72" y="6" width="2" height="20" fill="#5A5A5A" />
<rect x="94" y="6" width="2" height="20" fill="#5A5A5A" />
<rect x="136" y="6" width="2" height="20" fill="#FAFAFA" />
<rect x="158" y="6" width="2" height="20" fill="#FAFAFA" />
<rect x="200" y="6" width="2" height="20" fill="#AAAAAA" />
<rect x="222" y="6" width="2" height="20" fill="#AAAAAA" />
<rect x="2" y="8" width="6" height="16" fill="#0A0A0A" />
<rect x="66" y="8" width="6" height="16" fill="#5A5A5A" />
<rect x="130" y="8" width="6" height="16" fill="#FAFAFA" />
<rect x="194" y="8" width="6" height="16" fill="#AAAAAA" />
<rect x="0" y="10" width="2" height="12" fill="#0A0A0A" />
<rect x="64" y="10" width="2" height="12" fill="#5A5A5A" />
<rect x="128" y="10" width="2" height="12" fill="#FAFAFA" />
<rect x="192" y="10" width="2" height="12" fill="#AAAAAA" />
<rect x="26" y="24" width="2" height="8" fill="#0A0A0A" />
<rect x="90" y="24" width="2" height="8" fill="#5A5A5A" />
<rect x="154" y="24" width="2" height="8" fill="#FAFAFA" />
<rect x="218" y="24" width="2" height="8" fill="#AAAAAA" />
<rect x="24" y="28" width="2" height="4" fill="#0A0A0A" />
<rect x="88" y="28" width="2" height="4" fill="#5A5A5A" />
<rect x="152" y="28" width="2" height="4" fill="#FAFAFA" />
<rect x="216" y="28" width="2" height="4" fill="#AAAAAA" />
<rect x="0" y="64" width="4" height="4" fill="#0A0A0A" />
<rect x="18" y="64" width="4" height="10" fill="#0A0A0A" />
<rect x="64" y="64" width="4" height="4" fill="#5A5A5A" />
<rect x="82" y="64" width="4" height="10" fill="#5A5A5A" />
<rect x="128" y="64" width="4" height="4" fill="#FAFAFA" />
<rect x="146" y="64" width="4" height="10" fill="#FAFAFA" />
<rect x="192" y="64" width="4" height="4" fill="#AAAAAA" />
<rect x="210" y="64" width="4" height="10" fill="#AAAAAA" />
<rect x="4" y="66" width="2" height="6" fill="#0A0A0A" />
<rect x="16" y="66" width="2" height="6" fill="#0A0A0A" />
<rect x="22" y="66" width="2" height="12" fill="#0A0A0A" />
<rect x="68" y="66" width="2" height="6" fill="#5A5A5A" />
<rect x="80" y="66" width="2" height="6" fill="#5A5A5A" />
<rect x="86" y="66" width="2" height="12" fill="#5A5A5A" />
<rect x="132" y="66" width="2" height="6" fill="#FAFAFA" />
<rect x="144" y="66" width="2" height="6" fill="#FAFAFA" />
<rect x="150" y="66" width="2" height="12" fill="#FAFAFA" />
<rect x="196" y="66" width="2" height="6" fill="#AAAAAA" />
<rect x="208" y="66" width="2" height="6" fill="#AAAAAA" />
<rect x="214" y="66" width="2" height="12" fill="#AAAAAA" />
<rect x="2" y="68" width="2" height="2" fill="#0A0A0A" />
<rect x="6" y="68" width="2" height="20" fill="#0A0A0A" />
<rect x="14" y="68" width="2" height="2" fill="#0A0A0A" />
<rect x="66" y="68" width="2" height="2" fill="#5A5A5A" />
<rect x="70" y="68" width="2" height="20" fill="#5A5A5A" />
<rect x="78" y="68" width="2" height="2" fill="#5A5A5A" />
<rect x="130" y="68" width="2" height="2" fill="#FAFAFA" />
<rect x="134" y="68" width="2" height="20" fill="#FAFAFA" />
<rect x="142" y="68" width="2" height="2" fill="#FAFAFA" />
<rect x="194" y="68" width="2" height="2" fill="#AAAAAA" />
<rect x="198" y="68" width="2" height="20" fill="#AAAAAA" />
<rect x="206" y="68" width="2" height="2" fill="#AAAAAA" />
<rect x="8" y="70" width="2" height="18" fill="#0A0A0A" />
<rect x="72" y="70" width="2" height="18" fill="#5A5A5A" />
<rect x="136" y="70" width="2" height="18" fill="#FAFAFA" />
<rect x="200" y="70" width="2" height="18" fill="#AAAAAA" />
<rect x="10" y="72" width="2" height="16" fill="#0A0A0A" />
<rect x="74" y="72" width="2" height="16" fill="#5A5A5A" />
<rect x="138" y="72" width="2" height="16" fill="#FAFAFA" />
<rect x="202" y="72" width="2" height="16" fill="#AAAAAA" />
<rect x="4" y="74" width="2" height="12" fill="#0A0A0A" />
<rect x="12" y="74" width="2" height="16" fill="#0A0A0A" />
<rect x="20" y="74" width="2" height="2" fill="#0A0A0A" />
<rect x="68" y="74" width="2" height="12" fill="#5A5A5A" />
<rect x="76" y="74" width="2" height="16" fill="#5A5A5A" />
<rect x="84" y="74" width="2" height="2" fill="#5A5A5A" />
<rect x="132" y="74" width="2" height="12" fill="#FAFAFA" />
<rect x="140" y="74" width="2" height="16" fill="#FAFAFA" />
<rect x="148" y="74" width="2" height="2" fill="#FAFAFA" />
<rect x="196" y="74" width="2" height="12" fill="#AAAAAA" />
<rect x="204" y="74" width="2" height="16" fill="#AAAAAA" />
<rect x="212" y="74" width="2" height="2" fill="#AAAAAA" />
<rect x="14" y="76" width="2" height="16" fill="#0A0A0A" />
<rect x="78" y="76" width="2" height="16" fill="#5A5A5A" />
<rect x="142" y="76" width="2" height="16" fill="#FAFAFA" />
<rect x="206" y="76" width="2" height="16" fill="#AAAAAA" />
<rect x="16" y="78" width="2" height="16" fill="#0A0A0A" />
<rect x="80" y="78" width="2" height="16" fill="#5A5A5A" />
<rect x="144" y="78" width="2" height="16" fill="#FAFAFA" />
<rect x="208" y="78" width="2" height="16" fill="#AAAAAA" />
<rect x="18" y="80" width="2" height="16" fill="#0A0A0A" />
<rect x="82" y="80" width="2" height="16" fill="#5A5A5A" />
<rect x="146" y="80" width="2" height="16" fill="#FAFAFA" />
<rect x="210" y="80" width="2" height="16" fill="#AAAAAA" />
<rect x="20" y="82" width="2" height="14" fill="#0A0A0A" />
<rect x="84" y="82" width="2" height="14" fill="#5A5A5A" />
<rect x="148" y="82" width="2" height="14" fill="#FAFAFA" />
<rect x="212" y="82" width="2" height="14" fill="#AAAAAA" />
<rect x="22" y="84" width="2" height="10" fill="#0A0A0A" />
<rect x="86" y="84" width="2" height="10" fill="#5A5A5A" />
<rect x="150" y="84" width="2" height="10" fill="#FAFAFA" />
<rect x="214" y="84" width="2" height="10" fill="#AAAAAA" />
<rect x="24" y="86" width="2" height="6" fill="#0A0A0A" />
<rect x="88" y="86" width="2" height="6" fill="#5A5A5A" />
<rect x="152" y="86" width="2" height="6" fill="#FAFAFA" />
<rect x="216" y="86" width="2" height="6" fill="#AAAAAA" />
<rect x="26" y="88" width="2" height="6" fill="#0A0A0A" />
<rect x="90" y="88" width="2" height="6" fill="#5A5A5A" />
<rect x="154" y="88" width="2" height="6" fill="#FAFAFA" />
<rect x="218" y="88" width="2" height="6" fill="#AAAAAA" />
<rect x="28" y="90" width="2" height="6" fill="#0A0A0A" />
<rect x="92" y="90" width="2" height="6" fill="#5A5A5A" />
<rect x="156" y="90" width="2" height="6" fill="#FAFAFA" />
<rect x="220" y="90" width="2" height="6" fill="#AAAAAA" />
<rect x="30" y="92" width="2" height="4" fill="#0A0A0A" />
<rect x="94" y="92" width="2" height="4" fill="#5A5A5A" />
<rect x="158" y="92" width="2" height="4" fill="#FAFAFA" />
<rect x="222" y="92" width="2" height="4" fill="#AAAAAA" />
</svg>