<?xml version="1.0" encoding="UTF-8" ?>
<svg version="1.1" width="32" height="32" xmlns="http://www.w3.org/2000/svg" shape-rendering="crispEdges">
<rect x="20" y="0" width="8" height="16" fill="#0A0A0A" />
<rect x="18" y="2" width="2" height="22" fill="#0A0A0A" />
<rect x="28" y="2" width="2" height="12" fill="#0A0A0A" />
<rect x="16" y="4" width="2" height="22" fill="#0A0A0A" />
<rect x="30" y="4" width="2" height="8" fill="#0A0A0A" />
<rect x="14" y="6" width="2" height="22" fill="#0A0A0A" />
<rect x="12" y="8" width="2" height="20" fill="#0A0A0A" />
<rect x="10" y="10" width="2" height="16" fill="#0A0A0A" />
<rect x="8" y="12" width="2" height="12" fill="#0A0A0A" />
<rect x="6" y="14" width="2" height="8" fill="#0A0A0A" />
<rect x="4" y="16" width="2" height="4" fill="#0A0A0A" />
<rect x="20" y="16" width="6" height="2" fill="#0A0A0A" />
<rect x="20" y="18" width="4" height="2" fill="#0A0A0A" />
<rect x="20" y="20" width="2" height="2" fill="#0A0A0A" />
<rect x="0" y="22" width="2" height="10" fill="#0A0A0A" />
<rect x="2" y="24" width="2" height="8" fill="#0A0A0A" />
<rect x="4" y="26" width="2" height="6" fill="#0A0A0A" />
<rect x="6" y="28" width="2" height="4" fill="#0A0A0A" />
<rect x="8" y="30" width="2" height="2" fill="#0A0A0A" />
</svg>